<?xml version="1.0" encoding="UTF-8" standalone="no"?>
<!DOCTYPE svg PUBLIC "-//W3C//DTD SVG 1.1//EN" "http://www.w3.org/Graphics/SVG/1.1/DTD/svg11.dtd">
<svg width="100%" height="100%" viewBox="0 0 629 175" version="1.1" xmlns="http://www.w3.org/2000/svg" xmlns:xlink="http://www.w3.org/1999/xlink" xml:space="preserve" xmlns:serif="http://www.serif.com/" style="fill-rule:evenodd;clip-rule:evenodd;stroke-linejoin:round;stroke-miterlimit:1.41421;">
    <g transform="matrix(1,0,0,1,-15250,-243)">
        <g id="Logo" transform="matrix(0.409839,0,0,0.354862,8999.88,156.615)">
            <rect x="15250.2" y="243.434" width="1533.54" height="491.396" style="fill:none;"/>
            <clipPath id="_clip1">
                <rect x="15250.2" y="243.434" width="1533.54" height="491.396"/>
            </clipPath>
            <g clip-path="url(#_clip1)">
                <g transform="matrix(3.78452,0,0,2.09673,-21563.1,-1837.54)">
                    <g transform="matrix(0.25224,0,0,0.525818,8710.09,951.353)">
                        <text x="4177.3px" y="258.429px" style="font-family:'Coves-Light', 'Coves';font-weight:300;font-size:255.601px;fill:url(#_Linear2);">jo<tspan x="4359.77px 4476.46px 4581.42px 4651.19px 4771.5px 4875.59px " y="258.429px 258.429px 258.429px 258.429px 258.429px 258.429px ">nathan</tspan></text>
                        <text x="4992.28px" y="258.429px" style="font-family:'Coves-Bold', 'Coves';font-weight:700;font-size:255.601px;fill:url(#_Linear3);">wilke</text>
                    </g>
                    <g transform="matrix(1.51569,0,0,3.15961,-185.307,-3659.98)">
                        <text x="6560.35px" y="1539.48px" style="font-family:'Coves-Bold', 'Coves';font-weight:700;font-size:24px;fill:rgb(0,140,255);">Development &amp; Design</text>
                    </g>
                    <g transform="matrix(1.01131,0,0,1.01131,-112.824,1.12027)">
                        <g transform="matrix(0.444289,0,0,0.93671,3981.57,-338.509)">
                            <text x="13782.3px" y="1567.28px" style="font-family:'Coves-Light', 'Coves';font-weight:300;font-size:259.133px;fill:rgb(0,137,255);">&gt;</text>
                        </g>
                        <g transform="matrix(-0.444289,0,0,0.93671,15879.1,-338.509)">
                            <text x="13782.3px" y="1567.28px" style="font-family:'Coves-Light', 'Coves';font-weight:300;font-size:259.133px;fill:rgb(0,137,255);">&gt;</text>
                        </g>
                    </g>
                </g>
            </g>
        </g>
    </g>
    <defs>
        <linearGradient id="_Linear2" x1="0" y1="0" x2="1" y2="0" gradientUnits="userSpaceOnUse" gradientTransform="matrix(1336.52,0,0,217.66,4167.33,188.164)"><stop offset="0" style="stop-color:rgb(23,34,77);stop-opacity:1"/><stop offset="1" style="stop-color:rgb(23,19,63);stop-opacity:1"/></linearGradient>
        <linearGradient id="_Linear3" x1="0" y1="0" x2="1" y2="0" gradientUnits="userSpaceOnUse" gradientTransform="matrix(1336.52,0,0,217.66,4167.33,188.164)"><stop offset="0" style="stop-color:rgb(23,34,77);stop-opacity:1"/><stop offset="1" style="stop-color:rgb(23,19,63);stop-opacity:1"/></linearGradient>
    </defs>
</svg>
